<svg width="64" height="64" viewBox="0 0 64 64" fill="none" xmlns="http://www.w3.org/2000/svg">
  <rect x="4" y="4" width="56" height="56" rx="18" fill="#2F5A29" />
  <path
    d="M20.6667 40.2667C26.5333 40.2667 31.3333 35.3867 31.3333 29.4667C31.3333 26.3733 29.8133 23.44 26.7733 20.96C23.7333 18.48 21.44 14.6133 20.6667 10.7467C19.8933 14.6133 17.6 18.32 14.56 20.8C11.52 23.2533 10 26.1867 10 29.2533C10 35.1733 14.8 40.2667 20.6667 40.2667Z"
    stroke="#FFFDF7"
    stroke-width="4.8"
    stroke-linecap="round"
    stroke-linejoin="round"
  />
  <path
    d="M35.16 14.2133C35.8267 17.5467 37.8267 20.7467 40.4933 22.88C43.16 25.0133 44.6667 27.5467 44.6667 30.2133C44.6667 37.1467 39.0533 42.76 32.12 42.76C29.3467 42.76 26.7867 41.8667 24.7067 40.3467"
    stroke="#FFFDF7"
    stroke-width="4.8"
    stroke-linecap="round"
    stroke-linejoin="round"
  />
</svg>
